<svg width="275" height="284" viewBox="0 0 275 284" fill="none" xmlns="http://www.w3.org/2000/svg">
<path opacity="0.02" d="M0.585938 284V275.992C7.35677 275.732 12.5 275.211 16.0156 274.43C19.5312 273.518 22.4609 271.76 24.8047 269.156C27.2786 266.552 28.8411 263.232 29.4922 259.195C30.1432 255.159 30.4688 249.299 30.4688 241.617V43.1797C30.4688 35.6276 30.1432 29.8333 29.4922 25.7969C28.8411 21.6302 27.2786 18.2448 24.8047 15.6406C22.4609 13.0365 19.5312 11.3438 16.0156 10.5625C12.5 9.65104 7.35677 9.0651 0.585938 8.80469V0.796875C13.9974 1.57812 35.026 1.96875 63.6719 1.96875C89.5833 1.96875 109.766 1.57812 124.219 0.796875V8.80469C117.318 9.0651 112.109 9.65104 108.594 10.5625C105.078 11.3438 102.083 13.0365 99.6094 15.6406C97.2656 18.2448 95.7682 21.5651 95.1172 25.6016C94.4661 29.638 94.1406 35.4974 94.1406 43.1797V241.617C94.1406 249.169 94.4661 255.029 95.1172 259.195C95.7682 263.232 97.2656 266.552 99.6094 269.156C102.083 271.76 105.078 273.518 108.594 274.43C112.24 275.211 117.448 275.732 124.219 275.992V284C109.766 283.219 89.5833 282.828 63.6719 282.828C35.026 282.828 13.9974 283.219 0.585938 284ZM150.977 284V275.992C157.747 275.732 162.891 275.211 166.406 274.43C169.922 273.518 172.852 271.76 175.195 269.156C177.669 266.552 179.232 263.232 179.883 259.195C180.534 255.159 180.859 249.299 180.859 241.617V43.1797C180.859 35.6276 180.534 29.8333 179.883 25.7969C179.232 21.6302 177.669 18.2448 175.195 15.6406C172.852 13.0365 169.922 11.3438 166.406 10.5625C162.891 9.65104 157.747 9.0651 150.977 8.80469V0.796875C164.388 1.57812 185.417 1.96875 214.062 1.96875C239.974 1.96875 260.156 1.57812 274.609 0.796875V8.80469C267.708 9.0651 262.5 9.65104 258.984 10.5625C255.469 11.3438 252.474 13.0365 250 15.6406C247.656 18.2448 246.159 21.5651 245.508 25.6016C244.857 29.638 244.531 35.4974 244.531 43.1797V241.617C244.531 249.169 244.857 255.029 245.508 259.195C246.159 263.232 247.656 266.552 250 269.156C252.474 271.76 255.469 273.518 258.984 274.43C262.63 275.211 267.839 275.732 274.609 275.992V284C260.156 283.219 239.974 282.828 214.062 282.828C185.417 282.828 164.388 283.219 150.977 284Z" fill="white"/>
</svg>
