<svg width="426" height="284" viewBox="0 0 426 284" fill="none" xmlns="http://www.w3.org/2000/svg">
<path opacity="0.02" d="M0.890625 284V275.992C7.66146 275.732 12.8047 275.211 16.3203 274.43C19.8359 273.518 22.7656 271.76 25.1094 269.156C27.5833 266.552 29.1458 263.232 29.7969 259.195C30.4479 255.159 30.7734 249.299 30.7734 241.617V43.1797C30.7734 35.6276 30.4479 29.8333 29.7969 25.7969C29.1458 21.6302 27.5833 18.2448 25.1094 15.6406C22.7656 13.0365 19.8359 11.3438 16.3203 10.5625C12.8047 9.65104 7.66146 9.0651 0.890625 8.80469V0.796875C14.3021 1.57812 35.3307 1.96875 63.9766 1.96875C89.888 1.96875 110.07 1.57812 124.523 0.796875V8.80469C117.622 9.0651 112.414 9.65104 108.898 10.5625C105.383 11.3438 102.388 13.0365 99.9141 15.6406C97.5703 18.2448 96.0729 21.5651 95.4219 25.6016C94.7708 29.638 94.4453 35.4974 94.4453 43.1797V241.617C94.4453 249.169 94.7708 255.029 95.4219 259.195C96.0729 263.232 97.5703 266.552 99.9141 269.156C102.388 271.76 105.383 273.518 108.898 274.43C112.544 275.211 117.753 275.732 124.523 275.992V284C110.07 283.219 89.888 282.828 63.9766 282.828C35.3307 282.828 14.3021 283.219 0.890625 284ZM151.281 284V275.992C158.052 275.732 163.195 275.211 166.711 274.43C170.227 273.518 173.156 271.76 175.5 269.156C177.974 266.552 179.536 263.232 180.188 259.195C180.839 255.159 181.164 249.299 181.164 241.617V43.1797C181.164 35.6276 180.839 29.8333 180.188 25.7969C179.536 21.6302 177.974 18.2448 175.5 15.6406C173.156 13.0365 170.227 11.3438 166.711 10.5625C163.195 9.65104 158.052 9.0651 151.281 8.80469V0.796875C164.693 1.57812 185.721 1.96875 214.367 1.96875C240.279 1.96875 260.461 1.57812 274.914 0.796875V8.80469C268.013 9.0651 262.805 9.65104 259.289 10.5625C255.773 11.3438 252.779 13.0365 250.305 15.6406C247.961 18.2448 246.464 21.5651 245.812 25.6016C245.161 29.638 244.836 35.4974 244.836 43.1797V241.617C244.836 249.169 245.161 255.029 245.812 259.195C246.464 263.232 247.961 266.552 250.305 269.156C252.779 271.76 255.773 273.518 259.289 274.43C262.935 275.211 268.143 275.732 274.914 275.992V284C260.461 283.219 240.279 282.828 214.367 282.828C185.721 282.828 164.693 283.219 151.281 284ZM301.672 284V275.992C308.443 275.732 313.586 275.211 317.102 274.43C320.617 273.518 323.547 271.76 325.891 269.156C328.365 266.552 329.927 263.232 330.578 259.195C331.229 255.159 331.555 249.299 331.555 241.617V43.1797C331.555 35.6276 331.229 29.8333 330.578 25.7969C329.927 21.6302 328.365 18.2448 325.891 15.6406C323.547 13.0365 320.617 11.3438 317.102 10.5625C313.586 9.65104 308.443 9.0651 301.672 8.80469V0.796875C315.083 1.57812 336.112 1.96875 364.758 1.96875C390.669 1.96875 410.852 1.57812 425.305 0.796875V8.80469C418.404 9.0651 413.195 9.65104 409.68 10.5625C406.164 11.3438 403.169 13.0365 400.695 15.6406C398.352 18.2448 396.854 21.5651 396.203 25.6016C395.552 29.638 395.227 35.4974 395.227 43.1797V241.617C395.227 249.169 395.552 255.029 396.203 259.195C396.854 263.232 398.352 266.552 400.695 269.156C403.169 271.76 406.164 273.518 409.68 274.43C413.326 275.211 418.534 275.732 425.305 275.992V284C410.852 283.219 390.669 282.828 364.758 282.828C336.112 282.828 315.083 283.219 301.672 284Z" fill="white"/>
</svg>
