<svg width="409" height="285" viewBox="0 0 409 285" fill="none" xmlns="http://www.w3.org/2000/svg">
<path opacity="0.02" d="M0.6875 284V275.992C7.45833 275.732 12.6016 275.211 16.1172 274.43C19.6328 273.518 22.5625 271.76 24.9062 269.156C27.3802 266.552 28.9427 263.232 29.5938 259.195C30.2448 255.159 30.5703 249.299 30.5703 241.617V43.1797C30.5703 35.6276 30.2448 29.8333 29.5938 25.7969C28.9427 21.6302 27.3802 18.2448 24.9062 15.6406C22.5625 13.0365 19.6328 11.3438 16.1172 10.5625C12.6016 9.65104 7.45833 9.0651 0.6875 8.80469V0.796875C14.099 1.57812 35.1276 1.96875 63.7734 1.96875C89.6849 1.96875 109.867 1.57812 124.32 0.796875V8.80469C117.419 9.0651 112.211 9.65104 108.695 10.5625C105.18 11.3438 102.185 13.0365 99.7109 15.6406C97.3672 18.2448 95.8698 21.5651 95.2188 25.6016C94.5677 29.638 94.2422 35.4974 94.2422 43.1797V241.617C94.2422 249.169 94.5677 255.029 95.2188 259.195C95.8698 263.232 97.3672 266.552 99.7109 269.156C102.185 271.76 105.18 273.518 108.695 274.43C112.341 275.211 117.549 275.732 124.32 275.992V284C109.867 283.219 89.6849 282.828 63.7734 282.828C35.1276 282.828 14.099 283.219 0.6875 284ZM132.719 8.80469V0.796875C148.734 1.57812 169.047 1.96875 193.656 1.96875C221.13 1.96875 241.378 1.57812 254.398 0.796875V8.80469C244.372 9.19531 237.146 10.4323 232.719 12.5156C228.422 14.4688 226.273 18.1797 226.273 23.6484C226.273 28.2057 227.836 34.4557 230.961 42.3984L301.664 221.5L350.883 88.6875C358.305 68.5052 362.016 52.3594 362.016 40.25C362.016 29.4427 359.151 21.5651 353.422 16.6172C347.823 11.6693 339.49 9.0651 328.422 8.80469V0.796875C346.391 1.57812 362.992 1.96875 378.227 1.96875C390.466 1.96875 400.622 1.57812 408.695 0.796875V8.80469C393.591 14.6641 381.417 30.4844 372.172 56.2656L287.602 284.781C281.872 284.521 277.25 284.391 273.734 284.391C270.219 284.391 265.596 284.521 259.867 284.781L157.914 34.3906C151.273 17.8542 142.875 9.32552 132.719 8.80469Z" fill="white"/>
</svg>
