<svg width="277" height="285" viewBox="0 0 277 285" fill="none" xmlns="http://www.w3.org/2000/svg">
<path opacity="0.02" d="M0.523438 8.80469V0.796875C16.5391 1.57812 36.8516 1.96875 61.4609 1.96875C88.9349 1.96875 109.182 1.57812 122.203 0.796875V8.80469C112.177 9.19531 104.951 10.4323 100.523 12.5156C96.2266 14.4688 94.0781 18.1797 94.0781 23.6484C94.0781 28.2057 95.6406 34.4557 98.7656 42.3984L169.469 221.5L218.688 88.6875C226.109 68.5052 229.82 52.3594 229.82 40.25C229.82 29.4427 226.956 21.5651 221.227 16.6172C215.628 11.6693 207.294 9.0651 196.227 8.80469V0.796875C214.195 1.57812 230.797 1.96875 246.031 1.96875C258.271 1.96875 268.427 1.57812 276.5 0.796875V8.80469C261.396 14.6641 249.221 30.4844 239.977 56.2656L155.406 284.781C149.677 284.521 145.055 284.391 141.539 284.391C138.023 284.391 133.401 284.521 127.672 284.781L25.7188 34.3906C19.0781 17.8542 10.6797 9.32552 0.523438 8.80469Z" fill="white"/>
</svg>
