<svg width="132" height="26" viewBox="0 0 132 26" fill="none" xmlns="http://www.w3.org/2000/svg">
<path d="M0.40625 25V0.390625H3.46484V11.1133H6.62891V14.1016H3.46484V25H0.40625ZM8.38672 14.1016V11.1133H11.5156V0.390625H14.6094V25H11.5156V14.1016H8.38672ZM17.3516 19.7969V11.1133C17.3516 10.0117 17.8438 8.93359 18.8281 7.87891C20.0469 6.61328 21.5703 5.98047 23.3984 5.98047V8.82812C22.0156 8.82812 21.0547 9.40234 20.5156 10.5508C20.3516 10.9023 20.2695 11.2539 20.2695 11.6055V19.3398C20.2695 20.207 20.668 20.9453 21.4648 21.5547C22.0273 21.9766 22.6719 22.1875 23.3984 22.1875V25.0352C21.1719 25.0352 19.4492 24.1328 18.2305 22.3281C17.6445 21.4375 17.3516 20.5938 17.3516 19.7969ZM24.9102 25.0352V22.1875C26.1523 22.1875 27.043 21.625 27.582 20.5C27.7695 20.125 27.8633 19.7617 27.8633 19.4102V11.6055C27.8633 10.6445 27.4531 9.88281 26.6328 9.32031C26.1172 8.99219 25.5312 8.82812 24.875 8.82812V5.98047C27.0312 5.98047 28.6953 6.85938 29.8672 8.61719C30.4531 9.48438 30.7461 10.3164 30.7461 11.1133V19.7969C30.7461 20.9453 30.2539 22.0586 29.2695 23.1367C28.1211 24.3789 26.668 25.0117 24.9102 25.0352ZM33.418 19.9375V6.01562H36.4062V19.5859C36.4062 20.4297 36.8281 21.1328 37.6719 21.6953C38.2344 22.0469 38.8555 22.2227 39.5352 22.2227V25.1758C37.2852 25.1758 35.5508 24.2969 34.332 22.5391C33.7227 21.6484 33.418 20.7812 33.418 19.9375ZM41.082 25.1758V22.2227C42.3477 22.2227 43.2734 21.7188 43.8594 20.7109C44.0703 20.3359 44.1758 19.9609 44.1758 19.5859V6.01562H47.1641V19.9375C47.1641 21.0391 46.6602 22.1289 45.6523 23.207C44.4336 24.4961 42.9102 25.1523 41.082 25.1758ZM49.2031 20.0078L51.9805 19.4805C51.9805 20.5352 52.5312 21.3672 53.6328 21.9766C54.1719 22.2344 54.6875 22.375 55.1797 22.3984V25.1758C52.9062 25.1758 51.207 24.3555 50.082 22.7148C49.4961 21.8477 49.2031 20.9453 49.2031 20.0078ZM49.3789 11.3594C49.3789 9.22656 50.3516 7.64453 52.2969 6.61328C53.2344 6.12109 54.1719 5.875 55.1094 5.875V8.61719C54.0312 8.61719 53.1992 9.0625 52.6133 9.95312C52.3086 10.3984 52.1562 10.8672 52.1562 11.3594C52.1562 12.1094 52.7422 12.7188 53.9141 13.1875C54.8047 13.5625 56.5273 14.0547 59.082 14.6641C60.6758 14.9922 61.8125 15.7773 62.4922 17.0195C62.8438 17.6758 63.0195 18.4141 63.0195 19.2344C63.0195 21.4844 62.1172 23.1484 60.3125 24.2266C59.2578 24.8594 58.0508 25.1758 56.6914 25.1758V22.3984C57.7695 22.3984 58.6719 22.0234 59.3984 21.2734C59.9141 20.7344 60.1719 20.1016 60.1719 19.375C60.1719 18.4375 59.2461 17.6875 57.3945 17.125C56.9258 16.9844 56.1758 16.7852 55.1445 16.5273C54.043 16.2695 53.2461 16.0586 52.7539 15.8945C50.9727 15.1914 49.8945 14.125 49.5195 12.6953C49.4258 12.2734 49.3789 11.8281 49.3789 11.3594ZM56.6562 8.65234V5.875C58.6719 5.875 60.3008 6.625 61.543 8.125C62.3164 9.08594 62.7031 10.0938 62.7031 11.1484L59.9258 11.6055C59.9258 10.3164 59.2227 9.41406 57.8164 8.89844C57.3945 8.73438 57.0078 8.65234 56.6562 8.65234ZM65.0938 19.7969V11.0781C65.1172 10 65.6328 8.93359 66.6406 7.87891C67.8594 6.63672 69.3359 6.00391 71.0703 5.98047V8.75781C69.9453 8.75781 69.0664 9.25 68.4336 10.2344C68.1758 10.6562 68.0469 11.043 68.0469 11.3945V13.7852H75.9219V11.3945C75.9219 10.3398 75.3828 9.56641 74.3047 9.07422C73.8125 8.83984 73.3086 8.72266 72.793 8.72266V5.98047C74.4102 5.98047 75.8516 6.55469 77.1172 7.70312C78.1719 8.71094 78.7109 9.82422 78.7344 11.043V16.6328H68.0469V19.7969C68.0469 20.4531 68.4219 21.0625 69.1719 21.625C69.7812 22.0469 70.4258 22.2578 71.1055 22.2578V25C68.9727 25 67.2969 24.1328 66.0781 22.3984C65.4219 21.4844 65.0938 20.6172 65.0938 19.7969ZM72.793 25V22.2227C74.1992 22.2227 75.2539 21.6133 75.957 20.3945C76.0977 20.1367 76.2031 19.8906 76.2734 19.6562L78.7695 20.5703C78.3477 22.1875 77.3867 23.4062 75.8867 24.2266C74.9258 24.7422 73.8945 25 72.793 25ZM80.4922 0.390625H83.5859L89.8438 21.7656L88.7188 25H87.6289L80.4922 0.390625ZM89.0703 13.4336L93.4297 0.390625H96.5234C96.3125 1.07031 95.4336 3.78906 93.8867 8.54688C92.082 14.0781 91.0508 17.2539 90.793 18.0742H90.4414L89.0703 13.4336ZM98.2109 18.1445V6.57812C98.2109 5.33594 98.7383 4.07031 99.793 2.78125C101.199 1.09375 102.98 0.238281 105.137 0.214844V3.27344C103.707 3.27344 102.594 4 101.797 5.45312C101.469 6.08594 101.305 6.64844 101.305 7.14062V18.1445C101.305 19.6211 102.031 20.7695 103.484 21.5898C104.094 21.9414 104.633 22.1172 105.102 22.1172V25.1758C103.766 25.1758 102.43 24.6953 101.094 23.7344C99.1953 22.3281 98.2344 20.4648 98.2109 18.1445ZM107.035 25.1758V22.1172C107.855 22.1172 108.688 21.7539 109.531 21.0273C110.422 20.2305 110.879 19.2695 110.902 18.1445V7.14062C110.902 6.22656 110.527 5.34766 109.777 4.50391C109.004 3.70703 108.09 3.29687 107.035 3.27344V0.214844C109.402 0.214844 111.301 1.23438 112.73 3.27344C113.551 4.44531 113.961 5.54688 113.961 6.57812V18.1445C113.961 20.7461 112.801 22.7383 110.48 24.1211C109.262 24.8242 108.113 25.1758 107.035 25.1758ZM116.809 25H119.867V0.390625H116.809V25ZM121.625 13.9961H125.422C128.492 13.9727 130.414 12.8008 131.188 10.4805C131.492 9.54297 131.645 8.42969 131.645 7.14062C131.645 2.85156 129.711 0.601562 125.844 0.390625C125.703 0.390625 125.562 0.390625 125.422 0.390625H121.625V3.34375H124.93C127.297 3.39063 128.492 4.65625 128.516 7.14062C128.469 9.69531 127.285 10.9844 124.965 11.0078H121.625V13.9961Z" fill="white"/>
</svg>
